<?xml version="1.0" encoding="utf-8"?>
<!-- Generator: Adobe Illustrator 24.0.2, SVG Export Plug-In . SVG Version: 6.00 Build 0)  -->
<svg version="1.1" id="Layer_1" xmlns="http://www.w3.org/2000/svg" xmlns:xlink="http://www.w3.org/1999/xlink" x="0px" y="0px"
	 viewBox="0 0 100 125" style="enable-background:new 0 0 100 125;" xml:space="preserve">
<style type="text/css">
	.st0{fill:#FFFFFF;}
</style>
<path class="st0" d="M50,3.8C24.5,3.8,3.8,24.5,3.8,50S24.5,96.3,50,96.3S96.3,75.5,96.3,50S75.5,3.8,50,3.8z M54.1,72.2h-8.8v-8.3
	h8.8V72.2z M59.8,49.8c-2.6,1.9-5.4,3.5-5.9,7.1v2.3h-8.2v-2.7c0.4-5.3,2.9-7.6,5.3-9.5c2.4-1.9,4.4-3.3,4.4-6.5
	c0-3.7-1.9-5.5-5.2-5.5c-4.4,0-6.2,3.6-6.2,7.9h-8.9c0.2-8.7,5.9-15,14.7-15c11.5,0,15.1,7,15.1,11.7C64.9,45.4,62.4,47.8,59.8,49.8
	z"/>
</svg>
