<?xml version="1.0" encoding="utf-8"?>
<!-- Generator: Adobe Illustrator 24.0.2, SVG Export Plug-In . SVG Version: 6.00 Build 0)  -->
<svg version="1.1" id="Layer_1" xmlns="http://www.w3.org/2000/svg" xmlns:xlink="http://www.w3.org/1999/xlink" x="0px" y="0px"
	 viewBox="0 0 100 125" style="enable-background:new 0 0 100 125;" xml:space="preserve">
<style type="text/css">
	.st0{fill:#C1272D;}
</style>
<title>travel</title>
<path class="st0" d="M94.5,19.2c1.2-4.5,0.4-8.6-2.4-11.3s-6.8-3.6-11.3-2.4c-3.5,1-6.6,2.9-9.1,5.5L59.6,23.7L14.7,5.5
	C12.5,4.5,9.8,5,8,6.7L6.3,8.2C4.7,9.6,4.6,12,6,13.6c0,0.1,0.1,0.1,0.2,0.2c0,0,0.1,0.1,0.2,0.1L40,44.1l-1.2,1.3
	c-4.6,4.8-8.9,10-12.7,15.5l-15.5-1.5c-0.8-0.1-1.6,0.4-2,1.1l-3.4,6.6c-0.5,1-0.1,2.2,0.9,2.7h0.1l10.9,5c-1.3,2.1-2.5,4.3-3.7,6.4
	l-0.7,1.3c-1,1.5-0.9,3.3,0.3,4.5c1.2,1.1,3.1,1.3,4.5,0.4l1.3-0.7c2.1-1.2,4.3-2.4,6.4-3.7l5,10.9c0.5,1,1.7,1.4,2.7,1
	c0,0,0,0,0.1,0l6.6-3.4c0.7-0.4,1.2-1.2,1.1-2L39.2,74c5.5-3.8,10.6-8.1,15.5-12.7l1.3-1.2l30.2,33.7c0,0.1,0.1,0.1,0.1,0.2
	c1.5,1.5,3.9,1.5,5.5,0c0.1-0.1,0.1-0.1,0.2-0.2l1.5-1.7c1.7-1.9,2.1-4.5,1.2-6.8L76.3,40.4l12.6-12.1
	C91.5,25.8,93.5,22.7,94.5,19.2z"/>
</svg>
