<?xml version="1.0" encoding="utf-8"?>
<!-- Generator: Adobe Illustrator 24.0.2, SVG Export Plug-In . SVG Version: 6.00 Build 0)  -->
<svg version="1.1"
	 id="Layer_1" xmlns:cc="http://creativecommons.org/ns#" xmlns:dc="http://purl.org/dc/elements/1.1/" xmlns:inkscape="http://www.inkscape.org/namespaces/inkscape" xmlns:rdf="http://www.w3.org/1999/02/22-rdf-syntax-ns#" xmlns:sodipodi="http://sodipodi.sourceforge.net/DTD/sodipodi-0.dtd" xmlns:svg="http://www.w3.org/2000/svg"
	 xmlns="http://www.w3.org/2000/svg" xmlns:xlink="http://www.w3.org/1999/xlink" x="0px" y="0px" viewBox="0 0 100 125"
	 style="enable-background:new 0 0 100 125;" xml:space="preserve">
<style type="text/css">
	.st0{fill:#106B8F;}
</style>
<g transform="translate(0,-952.36218)">
	<path class="st0" d="M1,978.4v48h8v-48H1L1,978.4z M42,986.4c-7.2,0-13,5.8-13,13c0,0.3,0,0.7,0,1h58c0-0.3,0-0.7,0-1
		c0-7.2-5.8-13-13-13H42L42,986.4z M19,988.4c-3.3,0-6,2.7-6,6s2.7,6,6,6s6-2.7,6-6C25,991,22.3,988.4,19,988.4z M91,998.4v28h8v-28
		H91L91,998.4z M11,1004.4v12h78v-12H11z"/>
</g>
</svg>
