<?xml version="1.0" encoding="utf-8"?>
<!-- Generator: Adobe Illustrator 24.0.2, SVG Export Plug-In . SVG Version: 6.00 Build 0)  -->
<svg version="1.1" id="Layer_1" xmlns="http://www.w3.org/2000/svg" xmlns:xlink="http://www.w3.org/1999/xlink" x="0px" y="0px"
	 viewBox="0 0 33 41.3" style="enable-background:new 0 0 33 41.3;" xml:space="preserve">
<path d="M31.5,24.7c0,1-0.3,1.9-0.9,2.6c-0.6,0.7-1.4,1.1-2.5,1.1c-0.4,0-0.7-0.1-1-0.3s-0.5-0.5-0.6-0.9c-0.2,0.4-0.4,0.7-0.7,0.9
	s-0.6,0.3-1,0.3c-0.7,0-1.2-0.3-1.6-0.8c-0.4-0.5-0.5-1.3-0.4-2.2c0.1-1.1,0.5-2.1,1-2.8c0.6-0.7,1.2-1,2-1c0.6,0,1,0.1,1.3,0.2
	c0.3,0.1,0.7,0.3,1.1,0.5l0,0h0L28,26.3c0,0.4,0,0.7,0.1,0.8c0.1,0.1,0.2,0.2,0.3,0.2c0.5,0,0.9-0.2,1.2-0.7s0.5-1.1,0.5-1.9
	c0.1-1.6-0.2-2.8-0.9-3.6c-0.7-0.9-1.7-1.3-3.2-1.3c-1.4,0-2.5,0.5-3.3,1.4s-1.3,2.2-1.3,3.8c-0.1,1.6,0.3,2.8,1,3.7
	c0.7,0.9,1.8,1.4,3.2,1.4c0.4,0,0.8,0,1.2-0.1c0.4-0.1,0.8-0.2,1.1-0.3l0.3,1.1c-0.3,0.2-0.7,0.3-1.2,0.4c-0.5,0.1-0.9,0.2-1.4,0.2
	c-1.8,0-3.3-0.6-4.3-1.7c-1-1.1-1.5-2.7-1.4-4.7c0.1-2,0.7-3.5,1.8-4.7s2.6-1.7,4.4-1.7c1.8,0,3.2,0.5,4.1,1.6
	C31.2,21.3,31.6,22.8,31.5,24.7z M24.6,25.4c0,0.5,0,1,0.1,1.2c0.1,0.3,0.3,0.4,0.6,0.4c0.2,0,0.5-0.1,0.7-0.2
	c0.2-0.1,0.4-0.4,0.5-0.8l0.3-3.1c-0.1,0-0.2,0-0.3-0.1c-0.1,0-0.2,0-0.3,0c-0.5,0-0.8,0.2-1.1,0.6C24.8,24,24.7,24.6,24.6,25.4z"/>
<path d="M1,7.1c-0.6,2.9-1.1,8.3,1.6,14.2s7.3,9,9.8,10.4c1.4,0.7,1.6,0.2,1.8-0.1s1.4-2.2,1.7-2.8c0.3-0.6,1.4-2-0.2-3.1
	c-1.7-1.2-2.9-2.9-3.8-2.9c-0.9-0.1-2.1,1.8-3.3,1.1c-1.2-0.7-2.3-2.3-3-4c-0.8-1.7-1.3-3.5-1.1-4.9c0.2-1.4,2.4-1,2.9-1.8
	c0.5-0.8,0-2.8,0.2-4.8c0.2-1.9-1.6-1.9-2.2-2.1C4.8,6.1,2.7,5.8,2.3,5.7C1.8,5.7,1.3,5.5,1,7.1z"/>
<path d="M30.7,1H14.6c-1,0-1.8,0.8-1.8,1.8v11.1c0,1,0.8,1.8,1.8,1.8h16.1c1,0,1.8-0.8,1.8-1.8V2.8C32.5,1.8,31.7,1,30.7,1z M26.1,8
	l-0.9,0.8l5,5.7H15.1l5-5.7L19.2,8L14,13.9V3l8.6,6.2L31.3,3v10.9L26.1,8z M15.1,2.3h15l-7.5,5.4L15.1,2.3z"/>
</svg>
