<?xml version="1.0" encoding="utf-8"?>
<!-- Generator: Adobe Illustrator 24.0.2, SVG Export Plug-In . SVG Version: 6.00 Build 0)  -->
<svg version="1.1" id="Layer_1" xmlns="http://www.w3.org/2000/svg" xmlns:xlink="http://www.w3.org/1999/xlink" x="0px" y="0px"
	 viewBox="0 0 100 125" style="enable-background:new 0 0 100 125;" xml:space="preserve">
<style type="text/css">
	.st0{fill:#FFFFFF;}
</style>
<g id="Layer_2_1_">
</g>
<g id="Layer_1_1_">
	<g>
		<path class="st0" d="M83.7,8.3h-6.9V6.1c0-2-1.6-3.6-3.6-3.6s-3.6,1.6-3.6,3.6v2.3h-16V6.1c0-2-1.6-3.6-3.6-3.6s-3.6,1.6-3.6,3.6
			v2.3H30.3V6.1c0-2-1.6-3.6-3.6-3.6s-3.6,1.6-3.6,3.6v2.3h-6.9c-6.3,0-11.5,5.2-11.5,11.5V86c0,6.3,5.2,11.5,11.5,11.5h67.4
			c6.3,0,11.5-5.2,11.5-11.5V19.8C95.2,13.5,90.1,8.3,83.7,8.3z M16.3,15.5h6.9v2.3c0,2,1.6,3.6,3.6,3.6s3.6-1.6,3.6-3.6v-2.3h16.1
			v2.3c0,2,1.6,3.6,3.6,3.6s3.6-1.6,3.6-3.6v-2.3h16.1v2.3c0,2,1.6,3.6,3.6,3.6s3.6-1.6,3.6-3.6v-2.3h6.9c2.4,0,4.4,2,4.4,4.4v6.8
			H11.9v-6.8C11.9,17.4,13.9,15.5,16.3,15.5z M83.7,90.4H16.3c-2.4,0-4.4-2-4.4-4.4V33.8H88V86C88.1,88.4,86.1,90.4,83.7,90.4z"/>
		<path class="st0" d="M32,41h-8.7c-1.6,0-2.9,1.3-2.9,2.9V47c0,1.6,1.3,2.9,2.9,2.9H32c1.6,0,2.9-1.3,2.9-2.9v-3.1
			C34.9,42.3,33.6,41,32,41z"/>
		<path class="st0" d="M76.6,41H68c-1.6,0-2.9,1.3-2.9,2.9V47c0,1.6,1.3,2.9,2.9,2.9h8.7c1.6,0,2.9-1.3,2.9-2.9v-3.1
			C79.6,42.3,78.3,41,76.6,41z"/>
		<path class="st0" d="M54.3,41h-8.7c-1.6,0-2.9,1.3-2.9,2.9V47c0,1.6,1.3,2.9,2.9,2.9h8.7c1.6,0,2.9-1.3,2.9-2.9v-3.1
			C57.2,42.3,55.9,41,54.3,41z"/>
		<path class="st0" d="M32,57.8h-8.7c-1.6,0-2.9,1.3-2.9,2.9v3.1c0,1.6,1.3,2.9,2.9,2.9H32c1.6,0,2.9-1.3,2.9-2.9v-3.1
			C34.9,59.1,33.6,57.8,32,57.8z"/>
		<path class="st0" d="M76.6,57.8H68c-1.6,0-2.9,1.3-2.9,2.9v3.1c0,1.6,1.3,2.9,2.9,2.9h8.7c1.6,0,2.9-1.3,2.9-2.9v-3.1
			C79.6,59.1,78.3,57.8,76.6,57.8z"/>
		<path class="st0" d="M54.3,57.8h-8.7c-1.6,0-2.9,1.3-2.9,2.9v3.1c0,1.6,1.3,2.9,2.9,2.9h8.7c1.6,0,2.9-1.3,2.9-2.9v-3.1
			C57.2,59.1,55.9,57.8,54.3,57.8z"/>
		<path class="st0" d="M32,74.7h-8.7c-1.6,0-2.9,1.3-2.9,2.9v3.1c0,1.6,1.3,2.9,2.9,2.9H32c1.6,0,2.9-1.3,2.9-2.9v-3.1
			C34.9,76,33.6,74.7,32,74.7z"/>
		<path class="st0" d="M76.6,74.7H68c-1.6,0-2.9,1.3-2.9,2.9v3.1c0,1.6,1.3,2.9,2.9,2.9h8.7c1.6,0,2.9-1.3,2.9-2.9v-3.1
			C79.6,76,78.3,74.7,76.6,74.7z"/>
		<path class="st0" d="M54.3,74.7h-8.7c-1.6,0-2.9,1.3-2.9,2.9v3.1c0,1.6,1.3,2.9,2.9,2.9h8.7c1.6,0,2.9-1.3,2.9-2.9v-3.1
			C57.2,76,55.9,74.7,54.3,74.7z"/>
	</g>
</g>
</svg>
