<?xml version="1.0" encoding="utf-8"?>
<!-- Generator: Adobe Illustrator 24.0.2, SVG Export Plug-In . SVG Version: 6.00 Build 0)  -->
<svg version="1.1" id="Layer_1" xmlns="http://www.w3.org/2000/svg" xmlns:xlink="http://www.w3.org/1999/xlink" x="0px" y="0px"
	 viewBox="0 0 24 30" style="enable-background:new 0 0 24 30;" xml:space="preserve">
<style type="text/css">
	.st0{fill:#FFFFFF;}
</style>
<path class="st0" d="M21.5,10.4l-9.1-7.8c-0.2-0.2-0.5-0.2-0.7,0l-9.2,7.8c-0.2,0.2-0.3,0.5-0.1,0.8c0.1,0.1,0.3,0.2,0.4,0.2
	c0.1,0,0.3,0,0.4-0.1l0.1-0.1V21c0,0.3,0.2,0.5,0.5,0.5h16.4c0.3,0,0.5-0.2,0.5-0.5v-9.8l0.1,0.1c0.2,0.2,0.6,0.2,0.8-0.1
	S21.7,10.6,21.5,10.4z M14.2,20.4H9.8V14h4.4C14.2,14,14.2,20.4,14.2,20.4z M19.6,20.4h-4.4v-6.9c0-0.3-0.2-0.5-0.5-0.5H9.3
	c-0.3,0-0.5,0.2-0.5,0.5v6.9H4.4V10.3L12,3.7l7.6,6.5V20.4z"/>
</svg>
