<svg xmlns="http://www.w3.org/2000/svg" xmlns:xlink="http://www.w3.org/1999/xlink" version="1.1" x="0px" y="0px" viewBox="0 0 24 30" style="enable-background:new 0 0 24 24;" xml:space="preserve"><path d="M21.518,10.401l-9.15-7.785c-0.204-0.173-0.503-0.173-0.707,0l-9.18,7.819c-0.229,0.195-0.257,0.539-0.062,0.768  c0.108,0.127,0.261,0.192,0.415,0.192c0.125,0,0.251-0.043,0.353-0.13l0.072-0.062v9.766c0,0.301,0.244,0.545,0.545,0.545H20.16  c0.301,0,0.545-0.244,0.545-0.545v-9.828l0.107,0.091c0.229,0.195,0.573,0.167,0.768-0.062  C21.775,10.94,21.747,10.596,21.518,10.401z M14.163,20.39H9.802v-6.36h4.361V20.39z M19.615,20.424h-4.361v-6.939  c0-0.301-0.244-0.545-0.545-0.545H9.257c-0.301,0-0.545,0.244-0.545,0.545v6.939H4.351V10.275l7.664-6.528l7.6,6.466V20.424z"/><text x="0" y="39" fill="#000000" font-size="5px" font-weight="bold" font-family="'Helvetica Neue', Helvetica, Arial-Unicode, Arial, Sans-serif">Created by AlePio</text><text x="0" y="44" fill="#000000" font-size="5px" font-weight="bold" font-family="'Helvetica Neue', Helvetica, Arial-Unicode, Arial, Sans-serif">from the Noun Project</text></svg>