<?xml version="1.0" encoding="utf-8"?>
<!-- Generator: Adobe Illustrator 24.0.2, SVG Export Plug-In . SVG Version: 6.00 Build 0)  -->
<svg version="1.1" id="Layer_1" xmlns="http://www.w3.org/2000/svg" xmlns:xlink="http://www.w3.org/1999/xlink" x="0px" y="0px"
	 viewBox="0 0 32 40" style="enable-background:new 0 0 32 40;" xml:space="preserve">
<title>Artboard 12</title>
<path d="M12,7.5c-1.7,0-3-1.3-3-3s1.3-3,3-3s3,1.3,3,3C15,6.2,13.7,7.5,12,7.5z M12,2.5c-1.1,0-2,0.9-2,2s0.9,2,2,2s2-0.9,2-2
	C14,3.4,13.1,2.5,12,2.5z"/>
<path d="M15,30.5h-3c-0.3,0-0.5-0.2-0.5-0.5c0,0,0,0,0,0V20c0-0.3,0.2-0.5,0.5-0.5s0.5,0.2,0.5,0.5v9.5h2V12c0-0.3,0.2-0.5,0.5-0.5
	s0.5,0.2,0.5,0.5v18C15.5,30.3,15.3,30.5,15,30.5C15,30.5,15,30.5,15,30.5z"/>
<path d="M12,30.5H9c-0.3,0-0.5-0.2-0.5-0.5c0,0,0,0,0,0V12c0-0.3,0.2-0.5,0.5-0.5s0.5,0.2,0.5,0.5v17.5h2V20c0-0.3,0.2-0.5,0.5-0.5
	s0.5,0.2,0.5,0.5v10C12.5,30.3,12.3,30.5,12,30.5C12,30.5,12,30.5,12,30.5z"/>
<path d="M15,18.5H9c-0.3,0-0.5-0.2-0.5-0.5s0.2-0.5,0.5-0.5h6c0.3,0,0.5,0.2,0.5,0.5S15.3,18.5,15,18.5z"/>
<path d="M15,12.5c-0.3,0-0.5-0.2-0.5-0.5c0-0.3,0.2-0.5,0.4-0.5l7.1-0.9c0.3,0,0.5-0.3,0.5-0.6c0-0.3-0.3-0.5-0.6-0.5h-7.7l-1.9,1.9
	c-0.2,0.2-0.5,0.2-0.7,0c-0.2-0.2-0.2-0.5,0-0.7l2-2c0.1-0.1,0.2-0.1,0.4-0.1h7.9c0.9,0,1.6,0.7,1.6,1.6c0,0.8-0.6,1.5-1.4,1.6
	L15,12.5C15,12.5,15,12.5,15,12.5z"/>
<path d="M9,20.5H8.5C7.1,20.5,6,19.4,6,18v-7c0-1.4,1.1-2.5,2.5-2.5H10c0.1,0,0.3,0.1,0.4,0.1l2,2c0.2,0.2,0.2,0.5,0,0.7
	c-0.2,0.2-0.5,0.2-0.7,0L9.8,9.5H8.5C7.7,9.5,7,10.2,7,11v7c0,0.8,0.7,1.5,1.5,1.5H9c0.3,0,0.5,0.2,0.5,0.5S9.3,20.5,9,20.5z"/>
<path d="M22.5,25.5c-0.1,0-0.2,0-0.2-0.1c-0.2-0.1-5.1-2.6-5.1-7.6v-3.2c0-0.3,0.2-0.5,0.5-0.5c0,0,0,0,0,0c1.6-0.1,3.2-0.6,4.5-1.5
	c0.2-0.1,0.4-0.1,0.6,0c1.4,0.9,2.9,1.4,4.5,1.5c0.3,0,0.5,0.2,0.5,0.5c0,0,0,0,0,0v3.2c0,5.1-4.9,7.5-5.1,7.6
	C22.7,25.5,22.6,25.5,22.5,25.5z M18.2,15.1v2.7c0,3.8,3.4,6.1,4.3,6.6c0.9-0.5,4.3-2.8,4.3-6.6v-2.7c-1.5-0.2-3-0.7-4.3-1.5
	C21.2,14.4,19.7,14.9,18.2,15.1z"/>
<path d="M21.7,20.7c-0.1,0-0.3-0.1-0.4-0.1L19.7,19c-0.2-0.2-0.2-0.5,0-0.7s0.5-0.2,0.7,0c0,0,0,0,0,0l1.2,1.2l2.8-2.8
	c0.2-0.2,0.5-0.2,0.7,0s0.2,0.5,0,0.7c0,0,0,0,0,0l-3.2,3.2C22,20.6,21.8,20.7,21.7,20.7z"/>
</svg>
