<?xml version="1.0" encoding="utf-8"?>
<!-- Generator: Adobe Illustrator 24.0.2, SVG Export Plug-In . SVG Version: 6.00 Build 0)  -->
<svg version="1.1" id="Layer_1" xmlns="http://www.w3.org/2000/svg" xmlns:xlink="http://www.w3.org/1999/xlink" x="0px" y="0px"
	 viewBox="0 0 100 125" style="enable-background:new 0 0 100 125;" xml:space="preserve">
<path d="M92.5,15H60c-4.1,0-7.7,2-10,5c-2.3-3-5.9-5-10-5H7.5C6.1,15,5,16.1,5,17.5v60C5,78.9,6.1,80,7.5,80H40
	c4.1,0,7.5,3.4,7.5,7.5c0,1.4,1.1,2.5,2.5,2.5s2.5-1.1,2.5-2.5c0-4.1,3.4-7.5,7.5-7.5h32.5c1.4,0,2.5-1.1,2.5-2.5v-60
	C95,16.1,93.9,15,92.5,15z M47.5,77.5C45.4,75.9,42.8,75,40,75H10V20h30c4.1,0,7.5,3.4,7.5,7.5V77.5z M90,75H60
	c-2.8,0-5.4,0.9-7.5,2.5v-50c0-4.1,3.4-7.5,7.5-7.5h30V75z"/>
<path d="M40,25H17.5c-1.4,0-2.5,1.1-2.5,2.5v10c0,1.4,1.1,2.5,2.5,2.5H40c1.4,0,2.5-1.1,2.5-2.5v-10C42.5,26.1,41.4,25,40,25z
	 M37.5,35H20v-5h17.5V35z"/>
<path d="M82.5,45h-10c-1.4,0-2.5,1.1-2.5,2.5v10c0,1.4,1.1,2.5,2.5,2.5h10c1.4,0,2.5-1.1,2.5-2.5v-10C85,46.1,83.9,45,82.5,45z
	 M80,55h-5v-5h5V55z"/>
<path d="M40,45H17.5c-1.4,0-2.5,1.1-2.5,2.5s1.1,2.5,2.5,2.5H40c1.4,0,2.5-1.1,2.5-2.5S41.4,45,40,45z"/>
<path d="M40,55H17.5c-1.4,0-2.5,1.1-2.5,2.5s1.1,2.5,2.5,2.5H40c1.4,0,2.5-1.1,2.5-2.5S41.4,55,40,55z"/>
<path d="M40,65H17.5c-1.4,0-2.5,1.1-2.5,2.5s1.1,2.5,2.5,2.5H40c1.4,0,2.5-1.1,2.5-2.5S41.4,65,40,65z"/>
<path d="M57.5,27.5c0,1.4,1.1,2.5,2.5,2.5h22.5c1.4,0,2.5-1.1,2.5-2.5S83.9,25,82.5,25H60C58.6,25,57.5,26.1,57.5,27.5z"/>
<path d="M82.5,35H60c-1.4,0-2.5,1.1-2.5,2.5S58.6,40,60,40h22.5c1.4,0,2.5-1.1,2.5-2.5S83.9,35,82.5,35z"/>
<path d="M82.5,65H60c-1.4,0-2.5,1.1-2.5,2.5S58.6,70,60,70h22.5c1.4,0,2.5-1.1,2.5-2.5S83.9,65,82.5,65z"/>
<path d="M60,50h5c1.4,0,2.5-1.1,2.5-2.5S66.4,45,65,45h-5c-1.4,0-2.5,1.1-2.5,2.5S58.6,50,60,50z"/>
<path d="M60,60h5c1.4,0,2.5-1.1,2.5-2.5S66.4,55,65,55h-5c-1.4,0-2.5,1.1-2.5,2.5S58.6,60,60,60z"/>
</svg>
