<svg id="Layer_1" data-name="Layer 1" xmlns="http://www.w3.org/2000/svg" viewBox="0 0 459.1 512.02"><defs><style>.cls-1{fill:#e6af78;}.cls-2{fill:#eff2fa;}.cls-3{fill:#d29b6e;}.cls-4{fill:#f0c087;}.cls-5{fill:#e4eaf6;}.cls-6{fill:#5b5d6e;}.cls-7{fill:#515262;}.cls-8{fill:#785550;}.cls-9{fill:#694b4b;}.cls-10{fill:#5a4146;}.cls-11{fill:#623f33;}.cls-12{fill:#cc9869;}</style></defs><title>man</title><polygon class="cls-1" points="308.9 361.92 308.9 300.12 150.1 300.12 150.1 361.92 229.5 432.62 308.9 361.92"/><path class="cls-2" d="M458.3,390.8,349.1,365.1a18.34,18.34,0,0,1-4.6-1.8L256,414.9l-85-54.1a16.88,16.88,0,0,1-8,4.3L53.7,390.8a35.3,35.3,0,0,0-27.2,34.4v69.1A17.67,17.67,0,0,0,44.2,512H467.9a17.67,17.67,0,0,0,17.7-17.7V425.2A35.6,35.6,0,0,0,458.3,390.8Z" transform="translate(-26.5 0.02)"/><path class="cls-3" d="M176.6,300.1v65.2c100.1,36.1,158.9-54.2,158.9-54.2v-11Z" transform="translate(-26.5 0.02)"/><path class="cls-4" d="M141.2,97.1l7.7,169.2a53.16,53.16,0,0,0,21.1,40l36.5,27.4a52.86,52.86,0,0,0,31.8,10.6h35.3a52.86,52.86,0,0,0,31.8-10.6l36.5-27.4a52.84,52.84,0,0,0,21.1-40l7.7-169.2Z" transform="translate(-26.5 0.02)"/><path class="cls-1" d="M229.5,132.4c35.3,0,88.3-8.8,100.8-35.3H141.2l7.7,169.2a53.16,53.16,0,0,0,21.1,40l36.5,27.4a52.86,52.86,0,0,0,31.8,10.6H256c-17.7,0-53-35.3-53-79.4V159C203,150.1,211.9,132.4,229.5,132.4Z" transform="translate(-26.5 0.02)"/><path class="cls-5" d="M91.3,454.7,34.1,403.3a35.27,35.27,0,0,0-7.6,21.9v69.1A17.67,17.67,0,0,0,44.2,512H106V487.5A44.64,44.64,0,0,0,91.3,454.7Z" transform="translate(-26.5 0.02)"/><path class="cls-5" d="M420.7,454.7l57.2-51.4a35.27,35.27,0,0,1,7.6,21.9v69.1A17.67,17.67,0,0,1,467.8,512H406V487.5A44.64,44.64,0,0,1,420.7,454.7Z" transform="translate(-26.5 0.02)"/><polygon class="cls-6" points="251.6 512.02 207.4 512.02 213 432.62 246.1 432.62 251.6 512.02"/><path class="cls-7" d="M278.1,414.9H234v16.6a9.86,9.86,0,0,0,9.9,9.9h24.4a9.86,9.86,0,0,0,9.9-9.9l-.1-16.6Z" transform="translate(-26.5 0.02)"/><path class="cls-5" d="M175.3,342.3,256,414.9s-22.6,11.4-50.5,34.4a11.3,11.3,0,0,1-17.5-4l-37.9-83.4,12-18A8.82,8.82,0,0,1,175.3,342.3Z" transform="translate(-26.5 0.02)"/><path class="cls-5" d="M336.7,342.3,256,414.9s22.6,11.4,50.5,34.4a11.3,11.3,0,0,0,17.5-4l37.9-83.4-12-18A8.81,8.81,0,0,0,336.7,342.3Z" transform="translate(-26.5 0.02)"/><path class="cls-8" d="M309.5,38.6l8.3,58.5c37.8,7.6,43.2,66.8,44,83.8a16.58,16.58,0,0,0,2.8,8.6L379,211.9s-4.9-37,17.7-61.8C396.7,150.1,404.4,3.3,309.5,38.6Z" transform="translate(-26.5 0.02)"/><path class="cls-4" d="M387.9,208.1l-10,39.9a10.6,10.6,0,0,1-10.3,8h0a10.51,10.51,0,0,1-10.5-9.3L352,205.9a18.28,18.28,0,0,1,18.1-20.6h0A18.48,18.48,0,0,1,387.9,208.1Z" transform="translate(-26.5 0.02)"/><path class="cls-9" d="M149.7,22.8l13.1,8.9c-59,43.6-48,118.3-48,118.3,17.7,17.7,17.7,61.8,17.7,61.8l17.7-17.7s-6.8-51,26.5-70.6c30.9-18.2,57.9-8.8,85.5-8.8,73.9,0,94.6-27.9,91-61.8-2-17.5-28.8-54-97.2-52.9C228.4.5,176.6,8.9,149.7,22.8Z" transform="translate(-26.5 0.02)"/><path class="cls-10" d="M144.6,107.1s-9.4-37,18.2-75.3c-59,43.6-48,118.3-48,118.3,17.7,17.7,17.7,61.8,17.7,61.8l17.7-17.7s-6.8-51,26.5-70.6c30.9-18.2,57.9-8.8,85.5-8.8a213.46,213.46,0,0,0,31.8-2.2C237,114.5,203.4,71.4,144.6,107.1Z" transform="translate(-26.5 0.02)"/><path class="cls-1" d="M124.2,208.1l10,39.9a10.6,10.6,0,0,0,10.3,8h0a10.51,10.51,0,0,0,10.5-9.3l5.1-40.8A18.28,18.28,0,0,0,142,185.3h0A18.38,18.38,0,0,0,124.2,208.1Z" transform="translate(-26.5 0.02)"/><path class="cls-5" d="M370.8,494.3H309a8.81,8.81,0,0,0-8.8,8.8v8.8h79.4v-8.8A8.88,8.88,0,0,0,370.8,494.3Z" transform="translate(-26.5 0.02)"/><path class="cls-11" d="M209.3,194.9h0c-4,0-7.3-3.6-7.3-8v-8c0-4.4,3.3-8,7.3-8h0c4,0,7.3,3.6,7.3,8v8C216.6,191.3,213.3,194.9,209.3,194.9Z" transform="translate(-26.5 0.02)"/><path class="cls-11" d="M311.6,194.9h0c-4,0-7.3-3.6-7.3-8v-8c0-4.4,3.3-8,7.3-8h0c4,0,7.3,3.6,7.3,8v8C318.9,191.3,315.6,194.9,311.6,194.9Z" transform="translate(-26.5 0.02)"/><path class="cls-12" d="M256.1,270.62c-15.5,0-30-3.5-39.8-9.6a7.58,7.58,0,0,1-2.3-11.1,9.23,9.23,0,0,1,12.1-2.1c6.8,4.3,18,6.8,30,6.8s23.1-2.6,30-6.8a9.23,9.23,0,0,1,12.1,2.1,7.57,7.57,0,0,1-2.3,11.1C286.1,267.12,271.6,270.62,256.1,270.62Z" transform="translate(-26.5 0.02)"/></svg>