<?xml version="1.0" encoding="utf-8"?>
<!-- Generator: Adobe Illustrator 24.0.2, SVG Export Plug-In . SVG Version: 6.00 Build 0)  -->
<svg version="1.1"
	 id="Layer_1" xmlns:cc="http://creativecommons.org/ns#" xmlns:dc="http://purl.org/dc/elements/1.1/" xmlns:inkscape="http://www.inkscape.org/namespaces/inkscape" xmlns:rdf="http://www.w3.org/1999/02/22-rdf-syntax-ns#" xmlns:sodipodi="http://sodipodi.sourceforge.net/DTD/sodipodi-0.dtd" xmlns:svg="http://www.w3.org/2000/svg"
	 xmlns="http://www.w3.org/2000/svg" xmlns:xlink="http://www.w3.org/1999/xlink" x="0px" y="0px" viewBox="0 0 8.5 10.6"
	 style="enable-background:new 0 0 8.5 10.6;" xml:space="preserve">
<style type="text/css">
	.st0{fill:#FFFFFF;}
</style>
<g>
	<path class="st0" d="M1.8,1.4c-0.6,0-1.1,0.5-1.1,1.1s0.5,1.1,1.1,1.1c0.3,0,0.6-0.1,0.8-0.3c0-0.1,0-0.2,0-0.3
		c0-0.3,0.1-0.7,0.3-0.9C2.7,1.7,2.3,1.4,1.8,1.4z M6.7,1.4c-0.5,0-0.9,0.3-1.1,0.7C5.8,2.3,5.9,2.7,5.9,3c0,0.1,0,0.2,0,0.3
		c0.2,0.2,0.5,0.3,0.8,0.3c0.6,0,1.1-0.5,1.1-1.1S7.3,1.4,6.7,1.4z M4.2,1.9C3.6,1.9,3.1,2.4,3.1,3s0.5,1.1,1.1,1.1S5.3,3.6,5.3,3
		C5.4,2.4,4.9,1.9,4.2,1.9z M1.8,3.9C0.8,3.9,0,4.7,0,5.7v0.7c0,0.1,0.1,0.3,0.3,0.3H2V6.1c0-0.8,0.4-1.4,1-1.9
		C2.6,4,2.2,3.9,1.8,3.9z M6.7,3.9C6.2,3.9,5.9,4,5.5,4.3c0.6,0.4,1,1.1,1,1.9v0.5h1.7c0.1,0,0.3-0.1,0.3-0.3V5.7
		C8.5,4.7,7.7,3.9,6.7,3.9z M4.2,4.3c-1,0-1.8,0.8-1.8,1.8v0.7c0,0.1,0.1,0.3,0.3,0.3h3C5.9,7.1,6,7,6,6.8l0,0V6.1
		C6,5.1,5.2,4.3,4.2,4.3z"/>
</g>
</svg>
