<?xml version="1.0" encoding="utf-8"?>
<!-- Generator: Adobe Illustrator 24.0.2, SVG Export Plug-In . SVG Version: 6.00 Build 0)  -->
<svg version="1.1" id="Capa_1" xmlns="http://www.w3.org/2000/svg" xmlns:xlink="http://www.w3.org/1999/xlink" x="0px" y="0px"
	 viewBox="0 0 512 512" style="enable-background:new 0 0 512 512;" xml:space="preserve">
<style type="text/css">
	.st0{fill:#E2A975;}
	.st1{fill:#F4DBB3;}
	.st2{fill:#FF8086;}
	.st3{fill:#D19A6E;}
	.st4{fill:#DB4655;}
	.st5{fill:#ECBD83;}
	.st6{fill:#6E4848;}
	.st7{fill:#643C3E;}
	.st8{fill:#785353;}
	.st9{fill:#F5EBCD;}
	.st10{fill:#C38C66;}
	.st11{fill:#E5646E;}
</style>
<g>
	<path class="st0" d="M198.2,291.2h115.6v113.5H198.2V291.2z"/>
	<path class="st1" d="M272.5,512h-33L223,396.4H289L272.5,512z"/>
	<path class="st2" d="M148.6,330.3l-49.6,18l-3.1,1.5c-22.8,8.3-29.4,40.1-29.4,54v91.6l7.8,16.5h41.3l8.7-8l7.8,8h107.4v-83.9
		L148.6,330.3z"/>
	<path class="st3" d="M198.2,291.2c17.3,9.1,36.9,14.4,57.8,14.4s40.5-5.2,57.8-14.4V256H198.2V291.2z"/>
	<path class="st4" d="M148.6,82.6H66.1c-4.6,0-8.3,3.7-8.3,8.3c0,4.6,3.7,8.3,8.3,8.3h82.6L148.6,82.6L148.6,82.6z"/>
	<path class="st5" d="M367.5,148.6h-4.1V99.1H163.7l-3.7,90.8c4.2,55.4,39.5,98.1,96,98.1c5.7,0,11.3,0.6,16.8-0.3
		c48.6-7.7,86.3-48,90.1-97.8h4.5c11.4,0,20.6-9.2,20.6-20.6C388.1,157.9,378.9,148.6,367.5,148.6L367.5,148.6z"/>
	<path class="st0" d="M181.7,181.7V99.1h-33v49.5h-4.1c-11.4,0-20.6,9.2-20.6,20.6s9.2,20.6,20.6,20.6h4.5
		c4.2,55.4,50.4,99.1,106.9,99.1c5.6,0,11.4-0.5,16.8-1.3C221.4,279.8,181.7,235.4,181.7,181.7z"/>
	<path class="st6" d="M148.6,82.6l33,62.8c55.6-11,90.8-46.3,90.8-46.3l6.3,25c1.1,4.5,5.7,7.2,10.2,6c13.3-3.8,39.9-13,57.9-31v33
		c0,9.1,7.4,16.5,16.5,16.5s16.5-7.4,16.5-16.5v-33l-14.1-16.5L148.6,82.6z"/>
	<path class="st7" d="M181.7,82.6h-33l-16.5,16.5v33c0,9,7.2,16.5,16.2,16.5c11.8,0,22.9-1.2,33.4-3.3L181.7,82.6L181.7,82.6z"/>
	<path class="st2" d="M378.2,66.1C370.6,28.4,337.2,0,297.3,0h-33c-75.3,0-97.8,37-97.8,82.6l15.2,16.5h140.4L378.2,66.1z"/>
	<path class="st8" d="M214.7,172.4c-4.6,0-8.3-3.7-8.3-8.3v-8.3c0-4.6,3.7-8.3,8.3-8.3c4.6,0,8.3,3.7,8.3,8.3v8.3
		C223,168.7,219.3,172.4,214.7,172.4z"/>
	<path class="st8" d="M297.3,172.4c-4.6,0-8.3-3.7-8.3-8.3v-8.3c0-4.6,3.7-8.3,8.3-8.3s8.3,3.7,8.3,8.3v8.3
		C305.5,168.7,301.9,172.4,297.3,172.4z"/>
	<path class="st9" d="M239.5,381.9c0-7.5-3.4-14.5-9.2-19.2c-19.8-16.1-31.7-33.6-37-42.6c-2.1-3.6-6.4-5-10.2-3.5l-34.4,13.8
		c0,0,26.3,57.3,90.8,97.8L239.5,381.9z"/>
	<path class="st10" d="M256,231.2c-13.1,0-25.5-3.3-35.6-9.5c-3.9-2.4-5.1-7.5-2.8-11.3s7.5-5.1,11.3-2.8c15,9.1,39.1,9.1,54.1,0
		c3.9-2.4,9-1.1,11.3,2.8c2.4,3.9,1.1,9-2.8,11.3C281.5,228,269.1,231.2,256,231.2z"/>
	<g>
		<path class="st11" d="M264.3,0h-49.5c-45.6,0-82.6,37-82.6,82.6v16.5h49.5V82.6C181.7,37,218.6,0,264.3,0z"/>
		<path class="st11" d="M378.2,66.1h-39.6c-9.1,0-16.5,7.4-16.5,16.5v16.5h57.8V82.6C379.9,76.9,379.3,71.4,378.2,66.1z"/>
		<path class="st11" d="M74.3,395.6c0-19.2,9.5-36.6,24.7-47.2l-3.2,1.2c-22.8,8.3-38.1,30-38.1,54.3v91.6c0,9.1,7.4,16.5,16.5,16.5
			L74.3,395.6z"/>
		<path class="st11" d="M132.1,512h-16.5v-57.8c0-4.6,3.7-8.3,8.3-8.3s8.3,3.7,8.3,8.3V512z"/>
	</g>
	<path class="st2" d="M363.4,330.3l52.8,19.2c22.8,8.3,38.1,30,38.1,54.3v91.6c0,9.1-7.4,16.5-16.5,16.5h-41.3l-8.6-6.5l-7.9,6.5
		H272.5v-83.9L363.4,330.3z"/>
	<path class="st9" d="M272.5,381.9c0-7.5,3.4-14.5,9.2-19.2c19.8-16.1,31.7-33.6,37-42.6c2.1-3.6,6.4-5,10.2-3.5l34.4,13.8
		c0,0-26.3,57.3-90.8,97.8V381.9z"/>
	<path class="st11" d="M379.9,512h16.5v-57.8c0-4.6-3.7-8.3-8.3-8.3s-8.3,3.7-8.3,8.3V512z"/>
</g>
</svg>
