<?xml version="1.0" encoding="utf-8"?>
<!-- Generator: Adobe Illustrator 24.0.2, SVG Export Plug-In . SVG Version: 6.00 Build 0)  -->
<svg version="1.1" id="Layer_1" xmlns="http://www.w3.org/2000/svg" xmlns:xlink="http://www.w3.org/1999/xlink" x="0px" y="0px"
	 viewBox="0 0 24 30" style="enable-background:new 0 0 24 30;" xml:space="preserve">
<style type="text/css">
	.st0{fill:#C1272D;}
</style>
<title>Time</title>
<desc>Created with Sketch.</desc>
<g>
	<path class="st0" d="M12,23C5.9,23,1,18.1,1,12S5.9,1,12,1s11,4.9,11,11S18.1,23,12,23z M12,21c5,0,9-4,9-9s-4-9-9-9s-9,4-9,9
		S7,21,12,21z M12,12.4l3.4,1.7c0.5,0.2,0.7,0.8,0.4,1.3s-0.8,0.7-1.3,0.4l-4-2C10.2,13.7,10,13.4,10,13V7c0-0.6,0.4-1,1-1
		s1,0.4,1,1V12.4z"/>
</g>
</svg>
