<?xml version="1.0" encoding="utf-8"?>
<!-- Generator: Adobe Illustrator 24.0.2, SVG Export Plug-In . SVG Version: 6.00 Build 0)  -->
<svg version="1.1" id="Layer_1" xmlns="http://www.w3.org/2000/svg" xmlns:xlink="http://www.w3.org/1999/xlink" x="0px" y="0px"
	 viewBox="0 0 100 125" style="enable-background:new 0 0 100 125;" xml:space="preserve">
<style type="text/css">
	.st0{fill:#C1272D;}
</style>
<title>travel</title>
<path class="st0" d="M12.8,94.6c0.9,0.7,2.1,0.5,2.8-0.4l3.9-5.2h61l3.9,5.2c0.7,0.9,1.9,1.1,2.8,0.4s1.1-1.9,0.4-2.8L76.9,77.5
	c3.6-1.2,6.1-4.7,6.1-8.5V19c0-7.7-6.3-14-14-14H31c-7.7,0-14,6.3-14,14v50c0,3.9,2.5,7.3,6.1,8.5L12.4,91.8
	C11.7,92.7,11.9,93.9,12.8,94.6z M52,22h27v28H52V22z M74,64c0,2.8-2.2,5-5,5s-5-2.2-5-5c0-2.8,2.2-5,5-5S74,61.2,74,64z M21,50V22
	h27v28H21z M36,64c0,2.8-2.2,5-5,5s-5-2.2-5-5c0-2.8,2.2-5,5-5S36,61.2,36,64z M27.6,78.2c0-0.1,0.1-0.1,0.1-0.2h44.6
	c0,0.1,0.1,0.1,0.1,0.2l5.1,6.8h-55L27.6,78.2z"/>
</svg>
