<?xml version="1.0" encoding="utf-8"?>
<!-- Generator: Adobe Illustrator 24.0.2, SVG Export Plug-In . SVG Version: 6.00 Build 0)  -->
<svg version="1.1" id="Layer_1" xmlns="http://www.w3.org/2000/svg" xmlns:xlink="http://www.w3.org/1999/xlink" x="0px" y="0px"
	 viewBox="0 0 100 125" style="enable-background:new 0 0 100 125;" xml:space="preserve">
<style type="text/css">
	.st0{fill-rule:evenodd;clip-rule:evenodd;}
</style>
<path class="st0" d="M48,43c0,2.2,0,4.2,0,6.5c0.9,0,1.7,0,2.4,0c5.8,0,11.7,0.1,17.5,0c2.6,0,4.3,1,5.6,3.2
	c4.4,7.6,8.8,15.2,13.2,22.9c0.5,0.9,0.9,1.9,1,2.9c0.3,2.2-0.7,3.8-2.6,4.8c-1.7,0.9-3.9,0.5-5.4-1c-0.6-0.6-1.1-1.4-1.6-2.2
	c-3.2-5.4-6.4-10.9-9.4-16.4c-0.7-1.2-1.4-1.6-2.8-1.6c-8,0.1-16.1,0-24.2,0c-6.2,0-9.2-2.7-9.7-8.9c-0.6-7.9-1-15.8-1.4-23.7
	c-0.2-4.7,3-8.5,7.3-8.7c4.7-0.3,8.3,2.9,8.7,7.8c0.2,2.2,0.3,4.4,0.5,6.9c4.6,0,9.1,0,13.6,0c0.9,0,1.8,0,2.7,0.2
	c2,0.4,3.2,2,3.1,3.8c-0.2,1.9-1.5,3.3-3.6,3.4c-3.3,0.1-6.5,0.1-9.8,0.1C51.6,43,49.8,43,48,43z"/>
<path class="st0" d="M67.8,71.5c1.4,2.4,2.7,4.5,3.8,6.6c0.3,0.5,0.1,1.3-0.1,1.9c-6.3,13.2-21.6,20.2-35.7,16.5
	c-14.5-3.8-24.3-17-23.5-31.8c0.5-10.2,5.1-18.2,13.4-24.2c0.3-0.2,0.7-0.4,1.2-0.7c0.1,2.4,0.4,4.5,0.3,6.6c0,0.7-0.6,1.5-1.1,2
	C12.9,61.6,18,83.7,35.7,89.7c13,4.4,27.3-2.9,31.4-16.1C67.3,73,67.5,72.5,67.8,71.5z"/>
<path class="st0" d="M38.1,2.5c4.7,0,8.4,3.6,8.4,8.2c0,4.6-3.7,8.4-8.3,8.4c-4.4,0-8.2-3.7-8.3-8.2C29.8,6.3,33.5,2.5,38.1,2.5z"/>
</svg>
